<?xml version="1.0" encoding="UTF-8" standalone="no"?>
<svg
   xmlns:dc="http://purl.org/dc/elements/1.1/"
   xmlns:cc="http://creativecommons.org/ns#"
   xmlns:rdf="http://www.w3.org/1999/02/22-rdf-syntax-ns#"
   xmlns:svg="http://www.w3.org/2000/svg"
   xmlns="http://www.w3.org/2000/svg"
   xmlns:sodipodi="http://sodipodi.sourceforge.net/DTD/sodipodi-0.dtd"
   xmlns:inkscape="http://www.inkscape.org/namespaces/inkscape"
   viewBox="0 0 64 64"
   width="512"
   height="512"
   version="1.1"
   id="svg9"
   sodipodi:docname="Luftpumpe.svg"
   inkscape:version="0.92.4 (5da689c313, 2019-01-14)">
  <metadata
     id="metadata15">
    <rdf:RDF>
      <cc:Work
         rdf:about="">
        <dc:format>image/svg+xml</dc:format>
        <dc:type
           rdf:resource="http://purl.org/dc/dcmitype/StillImage" />
      </cc:Work>
    </rdf:RDF>
  </metadata>
  <defs
     id="defs13" />
  <sodipodi:namedview
     pagecolor="#ffffff"
     bordercolor="#666666"
     borderopacity="1"
     objecttolerance="10"
     gridtolerance="10"
     guidetolerance="10"
     inkscape:pageopacity="0"
     inkscape:pageshadow="2"
     inkscape:window-width="1366"
     inkscape:window-height="705"
     id="namedview11"
     showgrid="false"
     inkscape:zoom="0.4609375"
     inkscape:cx="256"
     inkscape:cy="256"
     inkscape:window-x="-8"
     inkscape:window-y="-8"
     inkscape:window-maximized="1"
     inkscape:current-layer="svg9" />
  <g
     id="outline">
    <rect
       x="26"
       y="52"
       width="2"
       height="2"
       id="rect2" />
    <rect
       x="26"
       y="42"
       width="2"
       height="8"
       id="rect4" />
    <path
       d="M48,40v6a1,1,0,0,1-1,1H38V20h2V14H33V12h2V10H53a3,3,0,0,0,0-6H35V2H25V4H7a3,3,0,0,0,0,6H25v2h2v2H20v6h2V56H18v6H42V56H38V53h9a7.008,7.008,0,0,0,7-7V40a1,1,0,0,1,1-1h7V33H55A7.008,7.008,0,0,0,48,40ZM35,6H53a1,1,0,0,1,0,2H35ZM25,8H7A1,1,0,0,1,7,6H25Zm2-4h6v6H27Zm4,8v2H29V12Zm9,46v2H20V58ZM24,56V20H36V56ZM22,18V16H38v2ZM60,37H55a3,3,0,0,0-3,3v6a5.006,5.006,0,0,1-5,5H38V49h9a3,3,0,0,0,3-3V40a5.006,5.006,0,0,1,5-5h5Z"
       id="path6" />
  </g>
  <path
     style="fill:#000000;stroke-width:2.16949153"
     d="m 145.35593,472.29831 v -22.77967 h 16.27119 16.27119 V 304.16271 158.80678 h -8.67797 -8.67797 v -22.77966 -22.77966 h 28.20339 28.20339 v -8.67797 c 0,-8.471347 -0.18079,-8.677965 -7.59322,-8.677965 -7.41243,0 -7.59322,-0.206618 -7.59322,-8.677966 V 78.535593 H 124.57888 47.395046 l -6.230487,-6.230487 c -3.426768,-3.426768 -6.879211,-8.81521 -7.672097,-11.974315 -2.001894,-7.976185 2.844733,-18.407272 10.809226,-23.264012 6.19756,-3.779266 12.140396,-4.074876 82.071192,-4.082398 l 75.38983,-0.0081 v -7.59322 -7.59322 h 39.05085 39.05085 v 7.514098 7.514098 l 76.97004,0.621495 76.97002,0.621495 5.6327,5.635076 c 3.51223,3.513741 6.08451,9.003724 6.8329,14.583489 1.08507,8.089657 0.46572,9.682923 -6.45357,16.60221 l -7.65379,7.653801 h -76.14915 -76.14915 v 8.677966 8.677966 h -8.67797 -8.67797 v 8.677965 8.67797 h 28.20339 28.20339 v 22.77966 22.77966 h -7.59322 -7.59322 V 268.3661 377.92542 h 36.4667 c 25.87707,0 37.47398,-0.7875 39.9354,-2.71186 2.82253,-2.20668 3.64147,-8.77408 4.39617,-35.25424 1.02046,-35.80535 2.79144,-42.5585 14.72492,-56.15 13.50166,-15.37755 20.35879,-17.4661 60.13783,-18.31682 l 35.25424,-0.75396 v 22.96632 22.96633 h -29.02251 c -20.59313,0 -29.66428,0.78763 -31.23219,2.71186 -1.21533,1.49153 -2.573,17.35593 -3.01705,35.25424 -0.93238,37.58258 -4.11806,47.35946 -19.80726,60.78885 -13.83524,11.84245 -24.74047,14.05861 -69.17916,14.05861 h -38.65709 v 13.01694 13.01695 h 15.18644 15.18644 v 22.77967 22.77966 h -94.37288 -94.37288 z m 175.31119,-0.54238 0.66712,-9.22034 h -81.48069 -81.48067 v 8.31638 c 0,4.57403 0.6627,8.97909 1.47266,9.78905 0.80996,0.80996 37.17606,1.21674 80.81356,0.90396 L 320,480.97627 Z M 288.54237,304.16271 V 158.80678 h -48.81356 -48.81356 v 145.35593 145.35593 h 48.81356 48.81356 z m 104.78571,100.61974 c 19.49414,-9.87145 21.89622,-15.98058 23.21429,-59.03991 l 1.08475,-35.43713 7.08508,-6.32559 c 6.95914,-6.21316 7.53007,-6.32558 32.12472,-6.32558 h 25.03969 l -0.66712,-9.22034 -0.66712,-9.22034 h -23.8644 c -27.54706,0 -32.95721,1.14517 -42.21579,8.93574 -12.52294,10.53735 -14.01889,15.88365 -15.24337,54.47724 -1.10824,34.93018 -1.1648,35.25727 -7.12732,41.22034 l -6.01019,6.01075 -41.17625,0.67386 -41.17624,0.67387 v 8.54647 8.54648 h 41.32808 c 33.80031,0 42.59274,-0.6404 48.27119,-3.51586 z M 304.81356,136.02712 v -8.67797 l -64.54237,-0.57465 -64.54238,-0.57466 v 9.82728 9.82728 l 64.54238,-0.57466 64.54237,-0.57466 z m -55.32203,-31.45763 v -8.677965 h -9.76272 c -9.61807,0 -9.76271,0.107136 -9.76271,7.231635 0,9.17203 1.0543,10.1243 11.20904,10.1243 8.25612,0 8.31639,-0.0629 8.31639,-8.67797 z M 264.67797,55.755932 V 30.80678 h -24.94916 -24.94915 v 24.949152 24.949153 h 24.94915 24.94916 z m -63.33289,0.542373 -0.66711,-9.220339 -72.22337,-0.571728 c -47.324534,-0.374626 -73.688963,0.212634 -76.474579,1.70345 -4.736974,2.535151 -5.65203,10.701353 -1.647818,14.705566 1.923827,1.923827 22.060113,2.60339 77.141687,2.60339 h 74.5383 z m 227.28774,7.559999 c 4.79907,-3.286109 5.18556,-9.267033 0.8773,-13.575307 -4.10264,-4.102636 -7.46032,-4.289777 -76.96775,-4.289777 h -72.67796 v 9.762712 9.762712 l 73.22034,-0.03321 c 40.27118,-0.01822 74.26781,-0.750475 75.54807,-1.627118 z"
     id="path3720"
     inkscape:connector-curvature="0"
     transform="scale(0.125)" />
  <path
     style="fill:#000000;stroke-width:2.16949153"
     d="m 145.35593,472.29831 v -22.77967 h 16.27119 16.27119 V 304.16271 158.80678 h -8.67797 -8.67797 v -22.77966 -22.77966 h 28.20339 28.20339 v -8.67797 c 0,-8.471347 -0.18079,-8.677965 -7.59322,-8.677965 -7.41243,0 -7.59322,-0.206618 -7.59322,-8.677966 V 78.535593 H 124.91222 48.061723 L 41.460566,72.981085 C 33.144233,65.983353 30.864898,55.530099 35.641331,46.293497 42.392453,33.238267 44.186005,32.976271 126.80752,32.976271 h 74.95519 v -7.59322 -7.59322 h 39.05085 39.05085 v 7.59322 7.59322 h 76.14915 76.14915 l 7.37627,7.376271 c 10.26263,10.262617 10.26263,20.544163 0,30.80678 l -7.37627,7.376271 h -76.14915 -76.14915 v 8.677966 8.677966 h -8.67797 -8.67797 v 8.677965 8.67797 h 28.20339 28.20339 v 22.77966 22.77966 h -7.59322 -7.59322 v 109.69917 109.69916 l 37.79092,-0.68221 c 20.78501,-0.37522 38.60196,-1.49316 39.59322,-2.48431 0.99126,-0.99115 2.39097,-16.61149 3.11046,-34.71186 1.4346,-36.09023 3.32056,-43.18269 15.02859,-56.51741 13.50166,-15.37755 20.35879,-17.4661 60.13783,-18.31682 l 35.25424,-0.75396 v 22.96632 22.96633 l -27.66102,0.0332 c -15.21356,0.0174 -29.12542,0.95692 -30.91525,2.08586 -2.57131,1.62187 -3.4987,9.01343 -4.41911,35.22102 -1.34417,38.27387 -4.56884,48.13475 -20.08363,61.41486 -13.83524,11.84247 -24.74047,14.05863 -69.17916,14.05863 h -38.65709 v 13.01694 13.01695 h 15.18644 15.18644 v 22.77967 22.77966 h -94.37288 -94.37288 z m 159.1303,8.35961 16.59852,-1.40308 v -8.35963 -8.35962 h -81.35594 -81.35593 v 8.5189 c 0,6.28892 0.99382,8.77859 3.79661,9.51103 6.00753,1.56993 123.93184,1.64649 142.31674,0.0924 z M 288.54237,304.16271 V 158.80678 h -48.81356 -48.81356 v 145.35593 145.35593 h 48.81356 48.81356 z m 103.5835,100.79861 c 19.96523,-8.342 22.88092,-15.43871 24.32907,-59.21633 l 1.17218,-35.43468 7.08508,-6.32803 c 6.95995,-6.21629 7.52723,-6.32804 32.12472,-6.32804 h 25.03969 l -0.66712,-9.22034 -0.66712,-9.22034 -18.29738,-0.63655 c -22.4602,-0.78139 -37.78404,2.30027 -47.21751,9.49552 -12.79579,9.75982 -14.45525,15.53021 -15.75361,54.77909 l -1.17218,35.43468 -7.08508,6.32803 -7.08506,6.32804 h -40.10138 -40.10136 v 8.67797 8.67797 h 40.20528 c 31.2732,0 41.97958,-0.74136 48.19178,-3.33699 z m -87.31231,-268.9342 v -8.67797 l -64.54237,-0.57465 -64.54238,-0.57466 v 9.82728 9.82728 l 64.54238,-0.57466 64.54237,-0.57466 z m -55.32203,-31.58237 v -8.802707 l -9.22034,0.667114 c -7.75817,0.561321 -9.33356,1.466229 -9.93428,5.706253 -1.23926,8.74696 1.06363,11.23205 10.40856,11.23205 h 8.74606 z M 264.67797,55.755932 V 30.80678 h -24.94916 -24.94915 v 24.949152 24.949153 h 24.94915 24.94916 z m -62.91526,1.398465 V 48.790151 L 187.11864,47.407108 C 168.30285,45.630073 73.863348,45.928891 59.661017,47.810399 50.294495,49.051264 48.711384,49.97133 48.06515,54.549634 c -1.494793,10.590011 1.281437,10.96901 80.3495,10.96901 h 73.34806 z m 227.69751,5.229423 c 4.15087,-5.0015 1.87342,-12.767805 -4.23988,-14.458288 -2.98305,-0.82489 -36.90848,-1.597117 -75.38983,-1.716057 l -69.9661,-0.216255 v 9.762712 9.762712 h 73.49708 c 61.43974,0 73.92386,-0.514274 76.09873,-3.134824 z"
     id="path3722"
     inkscape:connector-curvature="0"
     transform="scale(0.125)" />
  <path
     style="fill:#000000;stroke-width:2.16949153"
     d="m 145.35593,472.29831 v -22.77967 h 16.27119 16.27119 V 304.16271 158.80678 h -8.67797 -8.67797 v -22.77966 -22.77966 h 28.20339 28.20339 v -8.67797 c 0,-8.471347 -0.18079,-8.677965 -7.59322,-8.677965 -7.41243,0 -7.59322,-0.206618 -7.59322,-8.677966 V 78.535593 H 124.77999 47.797268 L 41.17922,72.569492 C 28.921785,61.51954 32.036688,40.699479 46.786298,35.091687 50.009745,33.866135 83.775931,32.976271 127.05649,32.976271 h 74.70622 v -7.59322 -7.59322 h 39.05085 39.05085 v 7.59322 7.59322 h 76.14915 76.14915 l 7.37627,7.376271 c 9.88909,9.889085 10.09684,19.747083 0.64306,30.514341 l -6.73321,7.66871 h -76.79221 -76.79221 v 8.677966 8.677966 h -8.67797 -8.67797 v 8.677965 8.67797 h 28.20339 28.20339 v 22.77966 22.77966 h -7.59322 -7.59322 v 109.83259 109.83259 l 37.90853,-0.93885 c 20.84968,-0.51638 38.65281,-1.68315 39.5625,-2.59284 0.90971,-0.90969 2.26729,-16.47458 3.01689,-34.58866 1.49409,-36.10459 3.40702,-43.29843 15.03527,-56.54229 13.50166,-15.37755 20.35879,-17.4661 60.13783,-18.31682 l 35.25424,-0.75396 v 22.96632 22.96633 l -27.66102,0.0332 c -15.21356,0.0174 -29.12117,0.95631 -30.90579,2.08453 -2.55582,1.61573 -3.50293,9.10981 -4.46044,35.29366 -1.40233,38.34759 -4.59426,48.11249 -20.05176,61.34355 -13.83524,11.84247 -24.74047,14.05863 -69.17916,14.05863 h -38.65709 v 13.01694 13.01695 h 15.18644 15.18644 v 22.77967 22.77966 h -94.37288 -94.37288 z m 129.81968,8.33297 45.90914,-1.42976 v -8.33295 -8.33298 h -81.35594 -81.35593 v 8.59941 8.59941 l 21.15254,0.70925 c 11.6339,0.3901 27.58496,0.91357 35.44681,1.1633 7.86185,0.24973 34.95337,-0.18939 60.20338,-0.97568 z M 288.54237,304.16271 V 158.80678 h -48.81356 -48.81356 v 145.35593 145.35593 h 48.81356 48.81356 z M 389.32194,405.8931 c 12.5638,-3.48813 21.8048,-13.77647 24.76285,-27.56942 1.35168,-6.30261 2.45758,-23.71224 2.45758,-38.68809 v -27.22881 l 7.37627,-7.37627 7.37628,-7.37627 h 25.1661 25.1661 v -8.57967 c 0,-8.13199 -0.40724,-8.65605 -7.80496,-10.04388 -11.29976,-2.11983 -43.91529,0.98903 -51.70105,4.92807 -18.89111,9.55756 -21.30382,15.7911 -22.79417,58.89111 l -1.22525,35.43291 -7.08508,6.3298 -7.08506,6.32979 h -40.10138 -40.10136 v 8.67797 8.67797 l 38.50848,-0.013 c 21.25572,-0.007 42.35082,-1.07885 47.08465,-2.3931 z M 303.72881,136.02712 v -9.76271 h -64 -64 v 9.76271 9.76271 h 64 64 z m -54.23728,-31.45763 c 0,-8.65318 -0.0243,-8.677965 -8.53177,-8.677965 -6.6264,0 -8.83933,0.969012 -9.90891,4.338985 -2.71918,8.56735 0.668,13.01695 9.90891,13.01695 8.5074,0 8.53177,-0.0248 8.53177,-8.67797 z M 264.67797,55.755932 V 30.80678 h -24.94916 -24.94915 v 24.949152 24.949153 h 24.94915 24.94916 z m -62.91526,1.420891 v -8.34182 l -45.72888,-1.507966 c -25.15088,-0.82938 -59.338493,-0.834328 -75.972472,-0.011 -29.650973,1.467632 -30.269456,1.599984 -31.563129,6.754388 -1.456481,5.803084 0.283755,8.328136 6.823805,9.901225 2.386441,0.574015 36.311864,1.156912 75.389826,1.295328 l 71.05085,0.251663 z m 226.61712,5.425137 c 2.84868,-2.082996 3.59932,-4.46848 2.62622,-8.345702 -1.31747,-5.249171 -2.12981,-5.475961 -24.52183,-6.846028 -12.73756,-0.779355 -46.43784,-1.41701 -74.8895,-1.41701 h -51.73031 v 9.762712 9.762712 h 72.26331 c 57.09279,0 73.10069,-0.612311 76.25211,-2.916684 z"
     id="path3724"
     inkscape:connector-curvature="0"
     transform="scale(0.125)" />
  <path
     style="fill:#000000;stroke-width:2.16949153"
     d="m 145.35593,472.29831 v -22.77967 h 16.27119 16.27119 V 304.16271 158.80678 h -8.67797 -8.67797 v -22.77966 -22.77966 h 28.33435 28.33436 l -0.67334,-8.1356 c -0.61472,-7.427421 -1.28708,-8.194764 -7.72418,-8.815416 -6.64562,-0.64076 -7.05085,-1.170673 -7.05085,-9.220339 v -8.540512 h -77.6958 -77.695802 l -5.911063,-6.169819 c -7.995407,-8.345407 -9.384984,-18.93448 -3.681421,-28.053749 2.444041,-3.907708 6.947494,-8.05686 10.007674,-9.220338 3.223447,-1.225552 36.989633,-2.115416 80.270192,-2.115416 h 74.70622 v -7.59322 -7.59322 h 39.05085 39.05085 v 7.59322 7.59322 h 76.79221 76.79221 l 6.73321,7.66871 c 9.08874,10.35151 9.08874,19.870393 0,30.221902 l -6.73321,7.66871 h -76.79221 -76.79221 v 8.677966 8.677966 h -8.67797 -8.67797 v 8.677965 8.67797 h 28.20339 28.20339 v 22.77966 22.77966 h -7.59322 -7.59322 v 109.90097 109.901 l 38.28602,-1.38472 c 21.0573,-0.7616 38.80975,-1.90848 39.44988,-2.54863 0.64015,-0.64013 1.83854,-16.20702 2.66312,-34.59305 1.73811,-38.75592 4.70929,-47.6163 20.68204,-61.67608 12.61549,-11.10461 22.38933,-13.29441 59.33726,-13.29441 h 30.49694 v 22.61157 22.61157 l -29.11362,0.71047 c -16.0125,0.39074 -29.87442,1.47408 -30.80429,2.40737 -0.92984,0.93332 -2.33836,16.55366 -3.13005,34.71187 -1.69323,38.83572 -4.38795,47.42747 -18.87458,60.17911 -14.70753,12.94607 -24.90346,15.14093 -70.33563,15.14093 h -38.65709 v 13.01694 13.01695 h 15.18644 15.18644 v 22.77967 22.77966 h -94.37288 -94.37288 z m 175.72882,-1.08475 v -8.67797 h -81.35594 -81.35593 v 8.67797 8.67797 h 81.35593 81.35594 z M 288.54237,304.16271 V 158.80678 h -48.81356 -48.81356 v 145.35593 145.35593 h 48.81356 48.81356 z m 109.92616,97.27835 c 14.13509,-9.35964 16.59473,-17.18437 17.62124,-56.05801 l 0.88798,-33.62712 6.71637,-7.05085 6.71636,-7.05084 h 25.73928 25.73928 l -0.67332,-8.05047 c -0.62232,-7.44031 -1.31428,-8.18273 -9.12998,-9.79551 -4.65115,-0.95978 -17.02762,-0.88535 -27.50327,0.16532 -38.15047,3.82674 -45.39603,14.99433 -45.39603,69.96907 0,25.61041 -0.013,25.67782 -6.73321,33.331 l -6.73321,7.66872 h -40.99561 -40.9956 v 8.87416 8.87415 l 43.011,-0.73856 c 42.36726,-0.7275 43.14149,-0.82495 51.72872,-6.51106 z M 303.72881,136.02712 v -9.76271 h -64 -64 v 9.76271 9.76271 h 64 64 z m -54.64869,-32 0.67333,-8.135595 h -8.5559 c -6.94465,0 -8.78685,0.883172 -9.78229,4.689735 -2.0489,7.83501 2.21372,13.01303 10.08481,12.25053 6.27257,-0.60765 6.96854,-1.41606 7.58005,-8.80467 z M 264.67797,55.755932 V 30.80678 h -24.94916 -24.94915 v 24.949152 24.949153 h 24.94915 24.94916 z m -62.91526,1.084746 V 48.162712 H 127.1809 c -79.180348,0 -80.971254,0.231062 -79.06423,10.200864 1.128284,5.898598 9.244543,6.556353 84.76469,6.869474 l 68.88135,0.285594 z m 223.45763,6.745654 c 6.20366,-1.715469 8.29195,-9.073195 3.66507,-12.913171 -2.11428,-1.754696 -25.4902,-2.971455 -76.0369,-3.957858 l -72.9841,-1.424265 v 10.113803 10.113803 l 69.9661,-0.216255 c 38.48135,-0.118931 72.40678,-0.891166 75.38983,-1.716057 z"
     id="path3726"
     inkscape:connector-curvature="0"
     transform="scale(0.125)" />
  <path
     style="fill:#000000;stroke-width:2.16949153"
     d="m 145.35593,472.29831 v -22.77967 h 16.27119 16.27119 V 304.16271 158.80678 h -8.67797 -8.67797 v -22.77966 -22.77966 h 28.33435 28.33436 l -0.67334,-8.1356 c -0.61472,-7.427421 -1.28708,-8.194764 -7.72418,-8.815416 -6.64562,-0.64076 -7.05085,-1.170673 -7.05085,-9.220339 v -8.540512 h -77.6958 -77.695802 l -6.371995,-6.65093 C 31.130589,62.62792 30.973944,48.746043 39.640183,40.076425 l 6.013064,-6.015408 78.054733,-0.620548 78.05473,-0.620548 v -7.515045 -7.515045 h 39.05085 39.05085 v 7.59322 7.59322 h 76.79221 76.79221 l 6.73321,7.66871 c 9.08874,10.35151 9.08874,19.870393 0,30.221902 l -6.73321,7.66871 h -76.79221 -76.79221 v 8.677966 8.677966 h -8.67797 -8.67797 v 8.677965 8.67797 h 28.20339 28.20339 v 22.77966 22.77966 h -7.59322 -7.59322 v 109.87813 109.87815 l 37.42373,-1.54175 c 20.58305,-0.84797 38.3263,-2.43096 39.42947,-3.51777 1.10314,-1.0868 2.70501,-16.4009 3.5597,-34.03131 1.85147,-38.1918 4.56745,-46.52557 19.55402,-59.99979 13.61939,-12.245 22.52498,-14.36058 60.4514,-14.36058 h 30.49694 v 22.52837 22.52837 l -29.16597,0.85231 c -16.04129,0.46876 -29.85468,1.54099 -30.69642,2.38273 -0.84174,0.84172 -2.20544,16.43568 -3.03043,34.65322 -1.73258,38.25842 -4.70865,47.72474 -19.07101,60.66137 -13.73314,12.3699 -25.14202,14.76652 -70.29434,14.76652 h -38.65709 v 13.01694 13.01695 h 15.18644 15.18644 v 22.77967 22.77966 h -94.37288 -94.37288 z m 175.72882,-1.08475 v -8.67797 h -81.35594 -81.35593 v 8.67797 8.67797 h 81.35593 81.35594 z M 288.54237,304.16271 V 158.80678 h -48.81356 -48.81356 v 145.35593 145.35593 h 48.81356 48.81356 z m 109.0844,97.95087 c 14.21475,-8.83757 17.15152,-17.89767 18.36416,-56.65401 l 1.05453,-33.70364 6.68251,-7.05085 6.68251,-7.05084 h 25.60833 25.60831 l -0.0332,-5.9661 c -0.0634,-11.37552 -1.54711,-11.92945 -29.68882,-11.08389 -23.74758,0.71354 -26.65032,1.26251 -34.64103,6.5513 -13.96819,9.24511 -16.47736,17.17217 -17.65624,55.78008 -1.01549,33.25748 -1.03597,33.36931 -7.45305,40.67796 l -6.43477,7.32878 H 344.7244 303.7288 v 8.90433 8.90433 l 42.84746,-0.76873 c 40.50829,-0.72678 43.29529,-1.04717 51.0505,-5.86872 z M 303.72881,136.02712 v -9.76271 h -64 -64 v 9.76271 9.76271 h 64 64 z m -54.6404,-32.13927 0.68163,-8.274853 -8.27484,0.681637 c -6.76137,0.556963 -8.40544,1.603309 -8.9888,5.720776 -1.22853,8.67124 1.13662,11.57011 8.83462,10.82824 6.47817,-0.62431 7.12245,-1.36908 7.74739,-8.9558 z M 264.67797,55.755932 V 30.80678 h -24.94916 -24.94915 v 24.949152 24.949153 h 24.94915 24.94916 z m -62.91526,1.084746 v -8.677966 h -73.34806 c -60.479631,0 -74.086892,0.54864 -77.559317,3.127172 -6.458925,4.796225 -1.615551,10.676688 10.110813,12.275797 5.24828,0.715702 39.074534,1.447905 75.169444,1.627118 l 65.62712,0.325845 z m 216.35454,7.27836 c 8.67938,-1.042582 11.65644,-2.366523 12.69754,-5.646785 2.93566,-9.249449 -0.72453,-9.786555 -77.73004,-11.40628 l -73.22034,-1.540107 v 9.99639 9.996388 l 63.45762,-0.01887 c 34.9017,-0.01041 68.55954,-0.631708 74.79522,-1.380749 z"
     id="path3728"
     inkscape:connector-curvature="0"
     transform="scale(0.125)" />
</svg>
